HIERARCHY
ROOT root
{
	OFFSET	0	13.1	24.9
	CHANNELS 6  Xposition Yposition Zposition Xrotation Yrotation Zrotation
	JOINT spine_1
	{
		OFFSET	0	9.99999	0
		CHANNELS 3  Xrotation Yrotation Zrotation
		JOINT spine_2
		{
			OFFSET	0	112	-10
			CHANNELS 3  Xrotation Yrotation Zrotation
			JOINT spine_3
			{
				OFFSET	0	206.5	19.3
				CHANNELS 3  Xrotation Yrotation Zrotation
				JOINT spine_4
				{
					OFFSET	0	110.4	14.6
					CHANNELS 3  Xrotation Yrotation Zrotation
					JOINT neck_1
					{
						OFFSET	0	71.8	-50.3
						CHANNELS 3  Xrotation Yrotation Zrotation
						JOINT neck_2
						{
							OFFSET	0	86.2	-25.8
							CHANNELS 3  Xrotation Yrotation Zrotation
							JOINT head_ee
							{
								OFFSET	0	179.8	-8.7
								CHANNELS 3  Xrotation Yrotation Zrotation
								End Site
								{
									OFFSET	1	0	0
								}
							}
						}
					}
					JOINT left_clavicle
					{
						OFFSET	-43.2	22.4	-70.8
						CHANNELS 3  Xrotation Yrotation Zrotation
						JOINT left_shoulder
						{
							OFFSET	-93.9	-5.79999	48.7
							CHANNELS 3  Xrotation Yrotation Zrotation
							JOINT left_elbow
							{
								OFFSET	-291.4	-30.8	15.2
								CHANNELS 3  Xrotation Yrotation Zrotation
								JOINT left_lowarm_twist
								{
									OFFSET	-110.7	-3.89999	13.6
									CHANNELS 3  Xrotation Yrotation Zrotation
									JOINT left_hand
									{
										OFFSET	-110.7	-3.89999	13.6
										CHANNELS 3  Xrotation Yrotation Zrotation
										JOINT left_ee
										{
											OFFSET	-80.8	-5.10001	12.1
											CHANNELS 3  Xrotation Yrotation Zrotation
											End Site
											{
												OFFSET	1	0	0
											}
										}
									}
								}
							}
						}
					}
					JOINT right_clavicle
					{
						OFFSET	43.2	22.4	-70.8
						CHANNELS 3  Xrotation Yrotation Zrotation
						JOINT right_shoulder
						{
							OFFSET	93.9	-5.79999	48.7
							CHANNELS 3  Xrotation Yrotation Zrotation
							JOINT right_elbow
							{
								OFFSET	291.4	-30.8	15.2
								CHANNELS 3  Xrotation Yrotation Zrotation
								JOINT right_lowarm_twist
								{
									OFFSET	110.7	-3.89999	13.6
									CHANNELS 3  Xrotation Yrotation Zrotation
									JOINT right_hand
									{
										OFFSET	110.7	-3.89999	13.6
										CHANNELS 3  Xrotation Yrotation Zrotation
										JOINT right_ee
										{
											OFFSET	80.8	-5.10001	12.1
											CHANNELS 3  Xrotation Yrotation Zrotation
											End Site
											{
												OFFSET	1	0	0
											}
										}
									}
								}
							}
						}
					}
				}
			}
		}
	}
	JOINT left_hip
	{
		OFFSET	-82.8	-127.5	0.300001
		CHANNELS 3  Xrotation Yrotation Zrotation
		JOINT left_knee
		{
			OFFSET	-28.2	-396.7	2.2
			CHANNELS 3  Xrotation Yrotation Zrotation
			JOINT left_ankle
			{
				OFFSET	-11.7	-411.3	35.4
				CHANNELS 3  Xrotation Yrotation Zrotation
				JOINT left_toes
				{
					OFFSET	0	-60	-88.6
					CHANNELS 3  Xrotation Yrotation Zrotation
					JOINT left_foot_ee
					{
						OFFSET	-22.5	-16.5	-42.2
						CHANNELS 3  Xrotation Yrotation Zrotation
						End Site
						{
							OFFSET	1	0	0
						}
					}
				}
			}
		}
	}
	JOINT right_hip
	{
		OFFSET	82.8	-127.5	0.300001
		CHANNELS 3  Xrotation Yrotation Zrotation
		JOINT right_knee
		{
			OFFSET	28.2	-396.7	2.2
			CHANNELS 3  Xrotation Yrotation Zrotation
			JOINT right_ankle
			{
				OFFSET	11.7	-411.3	35.4
				CHANNELS 3  Xrotation Yrotation Zrotation
				JOINT right_toes
				{
					OFFSET	0	-60	-88.6
					CHANNELS 3  Xrotation Yrotation Zrotation
					JOINT right_foot_ee
					{
						OFFSET	22.5	-16.5	-42.2
						CHANNELS 3  Xrotation Yrotation Zrotation
						End Site
						{
							OFFSET	1	0	0
						}
					}
				}
			}
		}
	}
}
MOTION
Frames: 9
Frame Time: 0.02
2424.38 702.514 -563.346 78.5364 -83.8133 84.1267 0.145524 -0.71411 -2.73992 0.149539 -0.538384 -2.77977 0.178044 0.0489023 -2.83096 0.167082 -0.398631 -2.80321 -16.1598 4.8817 2.77172 -16.1965 7.7699 4.31728 -0.0 0.0 -0.0 10.1417 18.1339 17.9994 -7.25906 -18.1669 66.3171 2.02762 -45.1213 0.842456 85.0558 -4.43321 -8.8687 -6.71895 29.3693 -25.5381 -0.0 0.0 -0.0 6.46437 -4.35566 -12.5333 -12.842 -10.9868 -61.4949 0.246903 6.97329 -0.0150435 30.9054 -0.0374857 3.90028 1.04676 -28.8453 -17.1403 0.0 0.0 0.0 -6.63124 -12.7683 -1.5562 -10.6502 0.289904 1.6064 36.1203 20.5235 -4.66546 -25.5787 0.0 0.0 -0.0 0.0 -0.0 -7.26829 29.9874 -3.71781 -35.8061 0.221732 -5.40227 -20.8081 26.9007 -3.84808 -12.3428 0.0 0.0 0.0 0.0 0.0 
2441.45 702.477 -565.026 77.382 -84.3425 82.9833 0.345441 -0.732193 -2.74434 0.349459 -0.556149 -2.78533 0.378662 0.0226988 -2.84017 0.367658 -0.425959 -2.80817 -16.0579 4.02679 1.59273 -16.0953 6.80235 2.90374 -0.0 0.0 -0.0 10.5889 15.7808 19.1425 -4.76048 -18.8999 66.1577 1.97934 -44.4312 0.808452 85.131 -4.44222 -8.87215 -6.55545 29.2467 -24.654 -0.0 0.0 -0.0 6.44712 -7.17672 -12.4633 -13.3077 -11.5883 -59.4828 0.277878 7.83784 -0.019036 29.1487 -0.0918804 3.68251 0.525584 -29.1487 -14.2978 0.0 0.0 0.0 -7.07258 -12.434 -1.73282 -8.75256 0.260211 1.31674 32.3372 22.6414 -4.31488 -26.4051 0.0 0.0 -0.0 0.0 -0.0 -5.32988 29.2198 -4.2465 -37.6213 0.32241 -5.66238 -19.1736 26.6345 -3.53312 -14.0253 0.0 0.0 0.0 0.0 0.0 
2465.0 705.632 -564.944 79.1626 -84.2049 84.4704 0.382183 -0.655356 -2.60288 0.385819 -0.488459 -2.63927 0.410189 0.0578139 -2.68344 0.400328 -0.366558 -2.65893 -15.8236 3.37641 3.23319 -15.8133 4.59419 4.2044 -0.0 0.0 -0.0 10.5248 12.6657 19.4952 -2.93003 -19.2675 65.4497 1.9441 -43.9169 0.783891 84.4692 -4.36307 -8.84136 -6.1021 29.097 -22.0673 -0.0 0.0 -0.0 6.30968 -11.325 -12.1131 -14.1595 -11.376 -57.825 0.378385 10.6166 -0.0351571 27.6756 -0.132328 3.49868 -0.0667484 -29.0391 -10.9915 0.0 0.0 0.0 -9.13785 -11.4102 -1.65282 -9.13894 0.267035 1.37564 36.6413 23.7152 -4.79676 -28.3835 0.0 0.0 -0.0 0.0 -0.0 -0.443631 24.0777 -4.45035 -39.723 0.449241 -5.95948 -20.8082 28.6621 -3.9366 -16.4466 0.0 0.0 0.0 0.0 0.0 
2479.15 707.354 -562.988 79.9976 -84.5917 85.1692 0.507312 -0.585957 -2.54152 0.510806 -0.423101 -2.57362 0.531408 0.103019 -2.60611 0.522064 -0.309719 -2.5897 -15.6248 2.83539 2.83833 -15.6147 3.77435 3.6396 -0.0 0.0 -0.0 10.6915 11.3038 19.9895 -0.64326 -20.061 65.0191 1.9935 -44.6352 0.818377 84.0497 -4.3131 -8.82137 -5.62872 28.9957 -19.378 -0.0 0.0 -0.0 6.45103 -14.0105 -12.253 -14.6954 -11.3161 -56.7141 0.395553 11.0866 -0.0383892 26.6598 -0.157456 3.37136 -0.563003 -28.8374 -8.20979 0.0 0.0 0.0 -10.1147 -9.88066 -1.57036 -8.92108 0.263236 1.34243 33.9723 26.9639 -4.60938 -30.5373 0.0 0.0 -0.0 0.0 -0.0 3.66622 21.2616 -5.43017 -39.7216 0.449153 -5.95928 -21.2359 29.0298 -4.0374 -18.1831 0.0 0.0 0.0 0.0 0.0 
2486.49 706.09 -562.634 79.956 -85.1035 84.8891 0.556367 -0.541154 -2.42758 0.559563 -0.385632 -2.45707 0.577496 0.114313 -2.4845 0.56899 -0.279381 -2.4714 -17.2446 2.32258 3.71753 -17.2113 2.39586 4.33376 -0.0 0.0 -0.0 10.7399 9.37408 20.3297 3.16625 -21.1354 64.967 1.89543 -43.1918 0.750356 83.6658 -4.2675 -8.80276 -5.25883 28.8888 -17.3342 -0.0 0.0 -0.0 6.42309 -15.8917 -12.1162 -14.4416 -11.1263 -55.8314 0.430972 12.0514 -0.0454928 26.2241 -0.167541 3.31662 -0.876342 -28.832 -6.50887 0.0 0.0 0.0 -12.6851 -7.38979 -1.26366 -2.14665 0.0824153 0.31911 34.7568 26.2101 -4.67156 -32.2957 0.0 0.0 -0.0 0.0 -0.0 11.6148 8.92578 -3.68919 -40.3593 0.48978 -6.04849 -21.0127 28.3489 -3.95885 -20.2378 0.0 0.0 0.0 0.0 0.0 
2497.77 706.76 -562.076 83.4927 -85.2278 88.3885 0.627685 -0.388457 -2.42237 0.630919 -0.233575 -2.44216 0.642051 0.257687 -2.43974 0.633768 -0.130738 -2.44981 -16.7302 2.53722 3.89983 -16.6941 2.66803 4.56763 -0.0 0.0 -0.0 10.752 8.6777 20.4374 5.42443 -21.7874 65.2494 1.95097 -44.0179 0.788664 83.699 -4.27144 -8.80438 -4.21149 28.6564 -11.6201 -0.0 0.0 -0.0 6.53173 -17.0614 -12.2279 -14.5563 -11.0985 -55.2136 0.401262 11.2425 -0.0394946 25.6335 -0.180547 3.2423 -1.14353 -28.8026 -5.05382 0.0 0.0 0.0 -11.4756 -6.90283 -1.76813 -5.64768 0.190988 0.845361 35.7582 25.8051 -4.7659 -34.4207 0.0 0.0 -0.0 0.0 -0.0 16.3603 7.99978 -2.87513 -41.7956 0.584937 -6.2478 -18.8164 28.9764 -3.57355 -19.9957 0.0 0.0 0.0 0.0 0.0 
2509.32 712.091 -563.618 83.3317 -85.5725 88.2395 0.562688 -0.371344 -2.43089 0.565949 -0.215955 -2.44958 0.576407 0.279251 -2.44318 0.568093 -0.109988 -2.45661 -17.6507 1.46999 4.0852 -17.6038 0.583353 4.36936 -0.0 0.0 -0.0 10.8162 8.85506 20.5398 7.06671 -22.9255 65.9407 1.9721 -44.3262 0.803384 83.2665 -4.22019 -8.78308 -4.22348 28.3261 -11.9036 -0.0 0.0 -0.0 6.83595 -18.7297 -12.6004 -14.057 -11.2922 -53.7183 0.469097 13.0822 -0.0537883 25.7669 -0.177677 3.25909 -1.43809 -28.7589 -3.44831 0.0 0.0 0.0 -11.0876 -3.90135 -2.08019 -7.59681 0.237431 1.14086 35.378 26.3253 -4.74167 -33.4996 0.0 0.0 -0.0 0.0 -0.0 19.1991 2.07946 -0.478325 -39.3688 0.427102 -5.90973 -20.0137 29.0138 -3.80392 -21.9966 0.0 0.0 0.0 0.0 0.0 
2519.35 709.919 -565.909 80.4192 -86.1104 85.353 0.546549 -0.437634 -2.43996 0.549817 -0.281534 -2.46285 0.563232 0.218169 -2.46926 0.554766 -0.17442 -2.47273 -17.6221 0.225312 0.422057 -17.6216 0.201269 0.47903 -0.0 0.0 -0.0 10.9696 8.64334 20.8618 9.94369 -22.9866 66.8913 2.01629 -44.9608 0.834438 83.3184 -4.22632 -8.78565 -3.32284 25.0566 -8.84655 -0.0 0.0 -0.0 6.86515 -18.8421 -12.6378 -13.8152 -10.8433 -52.8176 0.411017 11.5086 -0.0414187 26.9304 -0.150983 3.40532 -1.41422 -28.8833 -3.63158 0.0 0.0 0.0 -10.9952 -3.05138 -1.90726 -6.53297 0.213329 0.979382 34.7956 24.666 -4.63084 -34.381 0.0 0.0 -0.0 0.0 -0.0 21.6212 -1.38521 0.841944 -33.2622 0.0946463 -5.03275 -20.9629 21.3859 -3.64295 -23.7808 0.0 0.0 0.0 0.0 0.0 
2531.36 706.901 -567.324 78.7774 -86.3356 83.5598 0.402524 -0.458061 -2.36401 0.405581 -0.306749 -2.38835 0.419759 0.184509 -2.40088 0.411769 -0.196868 -2.3999 -17.64 -0.511152 -0.646137 -17.6393 -0.627901 -0.795848 -0.0 0.0 -0.0 10.9732 8.61431 20.8723 11.9664 -23.4065 68.0917 2.0571 -45.5346 0.863422 83.863 -4.29091 -8.81236 -2.88821 23.3875 -7.28773 -0.0 0.0 -0.0 7.12807 -18.937 -13.0416 -12.9788 -11.3203 -52.1899 0.380146 10.6649 -0.0354823 26.8404 -0.153153 3.39403 -1.77136 -28.7943 -1.67314 0.0 0.0 0.0 -12.1964 -1.8261 -1.5488 -4.88924 0.170202 0.730823 35.9325 25.3548 -4.7706 -34.0896 0.0 0.0 -0.0 0.0 -0.0 24.3596 -3.83486 2.33835 -27.601 -0.12845 -4.19297 -20.8442 16.1323 -3.45359 -24.8327 0.0 0.0 0.0 0.0 0.0 
